<?xml version="1.0" ?><svg viewBox="0 0 232 191.23" xmlns="http://www.w3.org/2000/svg"><defs><style>.cls-1,.cls-7{fill:#fff;}.cls-2{fill:#dae2ea;opacity:0.35;}.cls-3{fill:#ffc742;}.cls-4{fill:#275563;}.cls-5{fill:#efa536;}.cls-6,.cls-7{opacity:0.7;}.cls-8{fill:#f7ead0;}.cls-10,.cls-8{opacity:0.5;}.cls-9{fill:#908152;}.cls-10,.cls-11{fill:#d9f0ff;}</style></defs><title/><g data-name="Layer 2" id="Layer_2"><g data-name="Layer 1" id="Layer_1-2"><path class="cls-1" d="M34.37,123.47a2.13,2.13,0,0,1-2.13-2.13v-9a2.13,2.13,0,0,1,4.25,0v9A2.13,2.13,0,0,1,34.37,123.47Z"/><path class="cls-1" d="M34.37,107a2.13,2.13,0,0,1-2.13-2.13V100a2.13,2.13,0,0,1,4.25,0v4.85A2.13,2.13,0,0,1,34.37,107Z"/><rect class="cls-2" height="15.25" rx="6.7" ry="6.7" width="106.77" x="10.15" y="120.45"/><polygon class="cls-3" points="226.52 49.15 225.85 184.92 4.9 183.98 6.15 49.23 226.52 49.15"/><path class="cls-4" d="M228,129.38a4,4,0,0,1-4-4v-7.31a4,4,0,1,1,8,0v7.31A4,4,0,0,1,228,129.38Z"/><path class="cls-4" d="M228,109.38a4,4,0,0,1-4-4v-.31a4,4,0,1,1,8,0v.31A4,4,0,0,1,228,109.38Z"/><path class="cls-5" d="M218,79.19a4.19,4.19,0,0,0-5.79-1.25l-96.22,62-96.22-62a4.19,4.19,0,0,0-4.53,7l97.53,62.82a4.15,4.15,0,0,0,3.22.55,4.21,4.21,0,0,0,1,.11,4.17,4.17,0,0,0,2.26-.67L216.75,85A4.19,4.19,0,0,0,218,79.19Z"/><path class="cls-4" d="M115,139.91a4,4,0,0,1-2.16-.64L15.35,76.45a4,4,0,0,1,4.33-6.73l97.53,62.82a4,4,0,0,1-2.17,7.36Z"/><path class="cls-4" d="M117,139.91a4,4,0,0,1-2.17-7.36l97.53-62.82a4,4,0,0,1,4.33,6.73l-97.53,62.82A4,4,0,0,1,117,139.91Z"/><path class="cls-4" d="M208.43,162.14a4,4,0,0,1-2.16-.64l-62.17-40a4,4,0,0,1,4.33-6.73l62.17,40a4,4,0,0,1-2.17,7.36Z"/><path class="cls-4" d="M23.8,162.14a4,4,0,0,1-2.17-7.36l62.17-40a4,4,0,0,1,4.33,6.73L26,161.51A4,4,0,0,1,23.8,162.14Z"/><rect class="cls-5" height="9.21" width="220.2" x="7.41" y="175.72"/><g class="cls-6"><path class="cls-1" d="M19.31,131.12a3,3,0,0,1-3-3V116.75a3,3,0,0,1,6,0v11.37A3,3,0,0,1,19.31,131.12Z"/><path class="cls-1" d="M19.31,110.21a3,3,0,0,1-3-3v-6.15a3,3,0,0,1,6,0v6.15A3,3,0,0,1,19.31,110.21Z"/></g><circle class="cls-7" cx="19.27" cy="141.77" r="3.59"/><rect class="cls-8" height="10.46" width="217.98" x="5.19" y="51.12"/><path class="cls-4" d="M82.68,191.08H13a13,13,0,0,1-13-13v-121a13,13,0,0,1,13-13H219a13,13,0,0,1,13,13V89a4,4,0,1,1-8,0V57.13a5,5,0,0,0-5-5H13a5,5,0,0,0-5,5v121a5,5,0,0,0,5,5h69.7a4,4,0,1,1,0,8Z"/><path class="cls-4" d="M219,191.08H135.18a4,4,0,0,1,0-8H219a5,5,0,0,0,5-5V143a4,4,0,0,1,8,0V178.1A13,13,0,0,1,219,191.08Z"/><ellipse class="cls-9" cx="115.37" cy="61.24" rx="45.29" ry="45.36"/><circle class="cls-1" cx="115.73" cy="49.9" r="45.36"/><path class="cls-10" d="M161.83,49.55A45.36,45.36,0,1,1,73.44,35.14c3.72,21,23,39.82,43,39.82s38.28-15.17,43-39.82A45.12,45.12,0,0,1,161.83,49.55Z"/><path class="cls-11" d="M161.44,48.85a45.36,45.36,0,1,1-90.73,0,45.9,45.9,0,0,1,.38-5.91,45.37,45.37,0,0,0,90,0A45.93,45.93,0,0,1,161.44,48.85Z"/><path class="cls-4" d="M116,98.73a49.36,49.36,0,1,1,49.36-49.36A49.42,49.42,0,0,1,116,98.73ZM116,8a41.36,41.36,0,1,0,41.36,41.36A41.41,41.41,0,0,0,116,8Z"/><path class="cls-4" d="M106.25,49.56a3.22,3.22,0,0,1,.59-2,1.86,1.86,0,0,1,1.56-.8h5.77V40.87a2,2,0,0,1,.86-1.59,3.16,3.16,0,0,1,2-.7,3,3,0,0,1,2,.7,2.06,2.06,0,0,1,.81,1.59v5.91h5.72a2,2,0,0,1,1.56.82,2.92,2.92,0,0,1,.7,2,2.86,2.86,0,0,1-.67,2,2.05,2.05,0,0,1-1.59.77h-5.72v6a2,2,0,0,1-.78,1.62,3.27,3.27,0,0,1-2.08.61,3.41,3.41,0,0,1-2.08-.61,1.91,1.91,0,0,1-.84-1.62v-6h-5.77a1.9,1.9,0,0,1-1.56-.74A3.08,3.08,0,0,1,106.25,49.56Z"/><path class="cls-4" d="M106.15,191.23h-7.3a4,4,0,0,1,0-8h7.3a4,4,0,0,1,0,8Z"/><path class="cls-4" d="M119.15,191.23h-.3a4,4,0,0,1,0-8h.3a4,4,0,0,1,0,8Z"/></g></g></svg>